<?xml version="1.0" encoding="UTF-8" standalone="no"?>
<!-- Created with Inkscape (http://www.inkscape.org/) -->

<svg
   xmlns:osb="http://www.openswatchbook.org/uri/2009/osb"
   xmlns:dc="http://purl.org/dc/elements/1.1/"
   xmlns:cc="http://creativecommons.org/ns#"
   xmlns:rdf="http://www.w3.org/1999/02/22-rdf-syntax-ns#"
   xmlns:svg="http://www.w3.org/2000/svg"
   xmlns="http://www.w3.org/2000/svg"
   xmlns:sodipodi="http://sodipodi.sourceforge.net/DTD/sodipodi-0.dtd"
   xmlns:inkscape="http://www.inkscape.org/namespaces/inkscape"
   id="svg8"
   version="1.1"
   viewBox="0 0 348.79999 336"
   height="336mm"
   width="348.79999mm"
   inkscape:version="0.92.4 (5da689c313, 2019-01-14)"
   sodipodi:docname="Einar.svg">
  <defs
     id="defs2">
    <linearGradient
       id="linearGradient6588"
       osb:paint="solid">
      <stop
         style="stop-color:#000000;stop-opacity:1;"
         offset="0"
         id="stop6586" />
    </linearGradient>
  </defs>
  <sodipodi:namedview
     id="base"
     pagecolor="#ffffff"
     bordercolor="#666666"
     borderopacity="1.0"
     inkscape:pageopacity="0.0"
     inkscape:pageshadow="2"
     inkscape:zoom="0.5"
     inkscape:cx="861.63816"
     inkscape:cy="702.1751"
     inkscape:document-units="mm"
     inkscape:current-layer="layer1"
     showgrid="false"
     inkscape:window-width="1920"
     inkscape:window-height="1001"
     inkscape:window-x="-9"
     inkscape:window-y="-9"
     inkscape:window-maximized="1"
     fit-margin-top="0"
     fit-margin-left="0"
     fit-margin-right="0"
     fit-margin-bottom="0" />
  <metadata
     id="metadata5">
    <rdf:RDF>
      <cc:Work
         rdf:about="">
        <dc:format>image/svg+xml</dc:format>
        <dc:type
           rdf:resource="http://purl.org/dc/dcmitype/StillImage" />
        <dc:title></dc:title>
      </cc:Work>
    </rdf:RDF>
  </metadata>
  <g
     inkscape:label="Layer 1"
     inkscape:groupmode="layer"
     id="layer1"
     transform="translate(-0.5,-0.5)">
    <path
       id="path387"
       inkscape:label="part"
       style="fill:none;stroke:#000000;stroke-width:1"
       d="m 48.2,148.5 h 11.427727 v -3.1 h 11.562727 v 3.1 h 11.382728 v -3.1 h 11.562727 v 3.1 h 11.382731 v -3.1 h 11.56272 v 3.1 h 11.38273 v -3.1 h 11.56273 v 3.1 h 11.38273 v -3.1 h 11.56272 v 3.1 H 174.4"
       inkscape:connector-curvature="0" />
    <path
       id="path389"
       inkscape:label="part"
       style="fill:none;stroke:#000000;stroke-width:1"
       d="m 109.75,160.845 v 15.31 h 3.1 v -15.31 h -3.1"
       inkscape:connector-curvature="0" />
    <path
       id="path391"
       inkscape:label="part"
       style="fill:none;stroke:#000000;stroke-width:1"
       d="m 174.4,148.5 v 12.345 h -3.1 v 15.31 h 3.1 V 188.5"
       inkscape:connector-curvature="0" />
    <path
       id="path393"
       inkscape:label="part"
       style="fill:none;stroke:#000000;stroke-width:1"
       d="m 174.4,188.5 h -11.42773 v 3.1 h -11.56272 v -3.1 h -11.38273 v 3.1 h -11.56273 v -3.1 h -11.38273 v 3.1 h -11.56272 v -3.1 H 94.135909 v 3.1 H 82.573182 v -3.1 H 71.190454 v 3.1 H 59.627727 v -3.1 H 48.2"
       inkscape:connector-curvature="0" />
    <path
       id="path395"
       inkscape:label="part"
       style="fill:none;stroke:#000000;stroke-width:1"
       d="m 48.2,188.5 v -12.345 h 3.1 v -15.31 H 48.2 V 148.5"
       inkscape:connector-curvature="0" />
    <path
       id="path397"
       inkscape:label="part"
       style="fill:none;stroke:#000000;stroke-width:1"
       d="M 4.0999999,51.3 H 16.355 v -3.1 h 15.49 v 3.1 H 44.1"
       inkscape:connector-curvature="0" />
    <path
       id="path399"
       inkscape:label="part"
       style="fill:none;stroke:#000000;stroke-width:1"
       d="m 44.1,51.3 v 7.543889 h 3.1 v 10.778889 h -3.1 v 10.598888 h 3.1 v 10.778889 h -3.1 v 10.598885 h 3.1 v 10.77889 h -3.1 v 10.59889 h 3.1 v 10.77889 H 44.1 V 141.3"
       inkscape:connector-curvature="0" />
    <path
       id="path401"
       inkscape:label="part"
       style="fill:none;stroke:#000000;stroke-width:1"
       d="M 44.1,141.3 H 31.845 v 3.1 h -15.49 v -3.1 H 4.0999999"
       inkscape:connector-curvature="0" />
    <path
       id="path403"
       inkscape:label="part"
       style="fill:none;stroke:#000000;stroke-width:1"
       d="m 4.0999999,141.3 v -7.54389 H 1 V 122.97722 H 4.0999999 V 112.37833 H 1 V 101.59944 H 4.0999999 V 91.000555 H 1 V 80.221666 H 4.0999999 V 69.622778 H 1 V 58.843889 H 4.0999999 V 51.3"
       inkscape:connector-curvature="0" />
    <path
       id="path405"
       inkscape:label="part"
       style="fill:none;stroke:#000000;stroke-width:1"
       d="M 3.0999999,242.9 H 15.355 v -3.1 h 15.49 v 3.1 H 43.1"
       inkscape:connector-curvature="0" />
    <path
       id="path409"
       inkscape:label="part"
       style="fill:none;stroke:#000000;stroke-width:1"
       d="M 43.1,332.9 H 30.845 v 3.1 h -15.49 v -3.1 H 3.0999999"
       inkscape:connector-curvature="0" />
    <path
       id="path411"
       inkscape:label="part"
       style="fill:none;stroke:#000000;stroke-width:1"
       d="m 3.0999999,332.9 v -7.54389 0 -10.77889 0 -10.59889 0 -10.77889 0 -10.59889 0 -10.77888 0 -10.59889 0 -10.77889 0 V 242.9"
       inkscape:connector-curvature="0" />
    <path
       id="path413"
       inkscape:label="part"
       style="fill:none;stroke:#000000;stroke-width:1"
       d="m 48.2,48.2 h 11.517727 v 3.1 h 11.382727 v -3.1 h 11.562728 v 3.1 h 11.382727 v -3.1 h 11.562731 v 3.1 h 11.38272 v -3.1 h 11.56273 v 3.1 h 11.38273 v -3.1 h 11.56273 v 3.1 h 11.38272 V 48.2 H 174.4"
       inkscape:connector-curvature="0" />
    <path
       id="path415"
       inkscape:label="part"
       style="fill:none;stroke:#000000;stroke-width:1"
       d="m 174.4,48.2 v 10.733889 h -3.1 v 10.598889 h 3.1 v 10.778888 h -3.1 v 10.598889 h 3.1 v 10.778885 h -3.1 v 10.59889 h 3.1 v 10.77889 h -3.1 v 10.59889 h 3.1 V 144.4"
       inkscape:connector-curvature="0" />
    <path
       id="path417"
       inkscape:label="part"
       style="fill:none;stroke:#000000;stroke-width:1"
       d="m 174.4,144.4 h -11.51773 v -3.1 h -11.38272 v 3.1 h -11.56273 v -3.1 h -11.38273 v 3.1 h -11.56273 v -3.1 h -11.38272 v 3.1 H 94.045909 v -3.1 H 82.663182 v 3.1 H 71.100454 v -3.1 H 59.717727 v 3.1 H 48.2"
       inkscape:connector-curvature="0" />
    <path
       id="path419"
       inkscape:label="part"
       style="fill:none;stroke:#000000;stroke-width:1"
       d="m 48.2,144.4 v -10.73389 h 3.1 v -10.59889 h -3.1 v -10.77889 h 3.1 V 101.68944 H 48.2 V 90.910555 h 3.1 V 80.311666 H 48.2 V 69.532778 h 3.1 V 58.933889 H 48.2 V 48.2"
       inkscape:connector-curvature="0" />
    <path
       id="path421"
       inkscape:label="part"
       style="fill:none;stroke:#000000;stroke-width:1"
       d="m 178.5,51.3 h 12.255 v -3.1 h 15.49 v 3.1 H 218.5"
       inkscape:connector-curvature="0" />
    <path
       id="path423"
       inkscape:label="part"
       style="fill:none;stroke:#000000;stroke-width:1"
       d="m 218.5,51.3 v 7.543889 h 3.1 v 10.778889 h -3.1 v 10.598888 h 3.1 v 10.778889 h -3.1 v 10.598885 h 3.1 v 10.77889 h -3.1 v 10.59889 h 3.1 v 10.77889 h -3.1 V 141.3"
       inkscape:connector-curvature="0" />
    <path
       id="path425"
       inkscape:label="part"
       style="fill:none;stroke:#000000;stroke-width:1"
       d="m 218.5,141.3 h -12.255 v 3.1 h -15.49 v -3.1 H 178.5"
       inkscape:connector-curvature="0" />
    <path
       id="path427"
       inkscape:label="part"
       style="fill:none;stroke:#000000;stroke-width:1"
       d="m 178.5,141.3 v -7.54389 h -3.1 v -10.77889 h 3.1 v -10.59889 h -3.1 v -10.77889 h 3.1 V 91.000555 h -3.1 V 80.221666 h 3.1 V 69.622778 h -3.1 V 58.843889 h 3.1 V 51.3"
       inkscape:connector-curvature="0" />
    <path
       id="path429"
       inkscape:label="part"
       style="fill:none;stroke:#000000;stroke-width:1"
       d="m 222.6,48.2 h 11.51773 v 3.1 h 11.38272 v -3.1 h 11.56273 v 3.1 h 11.38273 v -5.216667 c 3.39126,-1.080291 6.71725,-2.312877 11.56273,0 V 51.3 h 11.38272 v -5.216667 c 3.61225,-2.177942 7.45167,-2.311369 11.56273,0 V 51.3 h 11.38273 v -3.1 h 11.56272 v 3.1 h 11.38273 V 48.2 H 348.8"
       inkscape:connector-curvature="0"
       sodipodi:nodetypes="cccccccccccccccccccccc" />
    <path
       id="path431"
       inkscape:label="part"
       style="fill:none;stroke:#000000;stroke-width:1"
       d="m 348.8,48.2 v 10.733889 h -3.1 v 10.598889 h 3.1 v 10.778888 h -3.1 v 10.598889 h 3.1 v 10.778885 h -3.1 v 10.59889 h 3.1 v 10.77889 h -3.1 v 10.59889 h 3.1 V 144.4"
       inkscape:connector-curvature="0" />
    <path
       id="path433"
       inkscape:label="part"
       style="fill:none;stroke:#000000;stroke-width:1"
       d="m 348.8,144.4 h -11.51773 v -3.1 h -11.38273 v 3.1 h -11.56272 v -3.1 h -11.38273 v 3.1 h -11.56273 v -3.1 h -11.38272 v 3.1 h -11.56273 v -3.1 h -11.38273 v 3.1 h -11.56273 v -3.1 h -11.38272 v 3.1 H 222.6"
       inkscape:connector-curvature="0" />
    <path
       id="path435"
       inkscape:label="part"
       style="fill:none;stroke:#000000;stroke-width:1"
       d="m 222.6,144.4 v -10.73389 h 3.1 v -10.59889 h -3.1 v -10.77889 h 3.1 v -10.59889 h -3.1 V 90.910555 h 3.1 V 80.311666 h -3.1 V 69.532778 h 3.1 V 58.933889 h -3.1 V 48.2"
       inkscape:connector-curvature="0" />
    <path
       id="path437"
       inkscape:label="part"
       style="fill:none;stroke:#000000;stroke-width:1"
       d="M 48.2,4.0999999 H 59.627727 V 1 H 71.190454 V 4.0999999 H 82.573182 V 1 H 94.135909 V 4.0999999 H 105.51864 V 1 h 11.56272 v 3.0999999 h 11.38273 V 1 h 11.56273 v 3.0999999 h 11.38273 V 1 h 11.56272 V 4.0999999 H 174.4"
       inkscape:connector-curvature="0" />
    <path
       id="path439"
       inkscape:label="part"
       style="fill:none;stroke:#000000;stroke-width:1"
       d="m 109.75,16.445 v 15.31 h 3.1 v -15.31 h -3.1"
       inkscape:connector-curvature="0" />
    <path
       id="path441"
       inkscape:label="part"
       style="fill:none;stroke:#000000;stroke-width:1"
       d="M 174.4,4.0999999 V 16.445 h -3.1 v 15.31 h 3.1 V 44.1"
       inkscape:connector-curvature="0" />
    <path
       id="path443"
       inkscape:label="part"
       style="fill:none;stroke:#000000;stroke-width:1"
       d="m 174.4,44.1 h -11.42773 v 3.1 h -11.56272 v -3.1 h -11.38273 v 3.1 h -11.56273 v -3.1 h -11.38273 v 3.1 H 105.51864 V 44.1 H 94.135909 v 3.1 H 82.573182 V 44.1 H 71.190454 v 3.1 H 59.627727 V 44.1 H 48.2"
       inkscape:connector-curvature="0" />
    <path
       id="path445"
       inkscape:label="part"
       style="fill:none;stroke:#000000;stroke-width:1"
       d="M 48.2,44.1 V 31.755 h 3.1 V 16.445 H 48.2 V 4.0999999"
       inkscape:connector-curvature="0" />
    <path
       style="fill:#4d4d4d;stroke:none;stroke-width:0.26458332"
       d="m 283.27114,82.593952 c 0,2.877399 -2.33186,5.210377 -5.20926,5.211755 -2.87739,0.0014 -5.21149,-2.329359 -5.21425,-5.206752 -0.003,-2.877396 2.32686,-5.212611 5.20425,-5.216754 2.87739,-0.0041 5.21373,2.324354 5.21925,5.201745 l -5.21175,0.01001 z"
       id="path5148" />
    <path
       style="fill:none;stroke:#4d4d4d;stroke-width:0.26458332;fill-opacity:1;stroke-opacity:1"
       d="m 286.98715,68.220088 c -6.27865,-0.409422 -12.68925,1.376135 -18.11133,5.429688 -10.84417,8.107106 -14.77475,23.061858 -9.42578,35.837894 5.34897,12.77603 18.52214,19.8812 31.56445,17.01758 13.04231,-2.86363 22.37891,-14.90824 22.37891,-28.857427 V 97.51501 h -0.13282 -27.73047 l 18.87305,-21.466797 -0.0898,-0.08789 c -4.89983,-4.726314 -11.04757,-7.330812 -17.32621,-7.740235 z"
       id="path5146" />
    <path
       style="color:#000000;font-style:normal;font-variant:normal;font-weight:normal;font-stretch:normal;font-size:medium;line-height:normal;font-family:sans-serif;font-variant-ligatures:normal;font-variant-position:normal;font-variant-caps:normal;font-variant-numeric:normal;font-variant-alternates:normal;font-feature-settings:normal;text-indent:0;text-align:start;text-decoration:none;text-decoration-line:none;text-decoration-style:solid;text-decoration-color:#000000;letter-spacing:normal;word-spacing:normal;text-transform:none;writing-mode:lr-tb;direction:ltr;text-orientation:mixed;dominant-baseline:auto;baseline-shift:baseline;text-anchor:start;white-space:normal;shape-padding:0;clip-rule:nonzero;display:inline;overflow:visible;visibility:visible;opacity:1;isolation:auto;mix-blend-mode:normal;color-interpolation:sRGB;color-interpolation-filters:linearRGB;solid-color:#000000;solid-opacity:1;vector-effect:none;fill:none;fill-opacity:1;fill-rule:nonzero;stroke:none;stroke-width:0.26458332;stroke-linecap:butt;stroke-linejoin:miter;stroke-miterlimit:4;stroke-dasharray:none;stroke-dashoffset:0;stroke-opacity:1;color-rendering:auto;image-rendering:auto;shape-rendering:auto;text-rendering:auto;enable-background:accumulate"
       d="m 286.97852,68.349609 c -6.24762,-0.407433 -12.62454,1.371488 -18.02149,5.40625 -10.79396,8.069576 -14.71062,22.960831 -9.38476,35.681641 5.32583,12.72078 18.43476,19.78925 31.41406,16.93945 12.93696,-2.84049 22.20321,-14.76343 22.26367,-28.5957 v -0.130859 l -27.43359,-0.265625 18.39648,-21.322266 -0.0918,-0.08594 c -4.86176,-4.647328 -10.93507,-7.222134 -17.14257,-7.626953 z m -0.0176,0.263672 c 6.10594,0.398196 12.07738,2.926297 16.8789,7.47461 l -18.5957,21.55664 27.73047,0.265625 c -0.11873,13.657874 -9.27518,25.405204 -22.04492,28.208984 -12.85338,2.82215 -25.83367,-4.17282 -31.11328,-16.7832 -5.27961,-12.61033 -1.39468,-27.372716 9.29882,-35.36719 5.3468,-3.997264 11.65966,-5.758887 17.84571,-5.355469 z"
       id="path622"
       inkscape:connector-curvature="0" />
    <text
       xml:space="preserve"
       style="font-style:normal;font-weight:normal;font-size:10.58333302px;line-height:1.25;font-family:sans-serif;letter-spacing:0px;word-spacing:0px;fill:#4d4d4d;fill-opacity:1;stroke:none;stroke-width:0.26458332;"
       x="67.398598"
       y="-325.77991"
       id="text628"
       transform="rotate(90)"><tspan
         sodipodi:role="line"
         id="tspan626"
         x="67.398598"
         y="-325.77991"
         style="stroke-width:0.26458332;fill:#4d4d4d;">Einar Darri</tspan></text>
    <path
       inkscape:connector-curvature="0"
       d="m 43.1,332.9 c -7.987909,-5.37032 -7.9375,-10.3379 -7.9375,-18.32278 v 0 -10.59889 0 -10.77889 0 -10.59889 0 -10.77888 0 -10.59889 0 C 34.729731,251.28786 37.332269,248.38172 43.1,242.9"
       style="fill:none;stroke:#000000;stroke-width:1"
       inkscape:label="part"
       id="path6627"
       sodipodi:nodetypes="cccccccccccccc" />
  </g>
  <g
     id="g126"
     inkscape:groupmode="layer"
     inkscape:label="newlayer"
     transform="translate(-0.5,-0.5)" />
  <g
     id="g449"
     inkscape:groupmode="layer"
     inkscape:label="newlayer"
     transform="translate(-0.5,-0.5)" />
</svg>
